<?xml version="1.0" encoding="UTF-8" standalone="no"?>
<!-- Created with Inkscape (http://www.inkscape.org/) -->

<svg
   version="1.1"
   id="svg1"
   width="1024"
   height="1024"
   viewBox="0 0 1024 1024"
   sodipodi:docname="cleo_icon.svg"
   inkscape:version="1.4 (e7c3feb1, 2024-10-09)"
   inkscape:export-filename="cleo_icon.png"
   inkscape:export-xdpi="96"
   inkscape:export-ydpi="96"
   xml:space="preserve"
   xmlns:inkscape="http://www.inkscape.org/namespaces/inkscape"
   xmlns:sodipodi="http://sodipodi.sourceforge.net/DTD/sodipodi-0.dtd"
   xmlns="http://www.w3.org/2000/svg"
   xmlns:svg="http://www.w3.org/2000/svg"><defs
     id="defs1" /><sodipodi:namedview
     id="namedview1"
     pagecolor="#000000"
     bordercolor="#000000"
     borderopacity="0.25"
     inkscape:showpageshadow="2"
     inkscape:pageopacity="0.0"
     inkscape:pagecheckerboard="0"
     inkscape:deskcolor="#d1d1d1"
     showgrid="false"
     showguides="true"
     inkscape:export-bgcolor="#00000000"
     inkscape:zoom="0.4046529"
     inkscape:cx="495.48637"
     inkscape:cy="551.08958"
     inkscape:window-width="1512"
     inkscape:window-height="945"
     inkscape:window-x="0"
     inkscape:window-y="37"
     inkscape:window-maximized="0"
     inkscape:current-layer="g6"><sodipodi:guide
       position="429.87031,925.26962"
       orientation="0,-1"
       id="guide4"
       inkscape:locked="false" /><sodipodi:guide
       position="323.73424,621.18564"
       orientation="0,-1"
       id="guide5"
       inkscape:locked="false" /><sodipodi:guide
       position="460.88882,737.33457"
       orientation="0,-1"
       id="guide6"
       inkscape:locked="false" /></sodipodi:namedview><g
     inkscape:groupmode="layer"
     inkscape:label="Image"
     id="g1"><g
       id="g6"
       transform="translate(0,-50)"><path
         style="fill:#323a3d;fill-opacity:1"
         d="m 227.48523,286.7257 -57.36571,65.1671 c 0.0504,49.55266 -3.22993,124.78237 -1.85344,172.07227 33.65073,42.28229 79.18763,86.91294 116.16086,131.38271 l 0.51182,-165.49501 126.43351,-118.31413 0.106,-184.71685 -184.31103,179.26253 z"
         id="path1"
         sodipodi:nodetypes="ccccccccc" /><path
         style="fill:#41494c;fill-opacity:1"
         d="M 140.24366,438.64754 135.30115,649.93974 394.78279,823.5453 494.86856,759.29271 309.05328,621.99157 Z"
         id="path2"
         sodipodi:nodetypes="cccccc" /><path
         style="fill:#18e08b;fill-opacity:1"
         d="m 212.52782,725.31297 1.23563,76.60887 128.50519,121.8558 h 121.09144 l 331.148,-208.70595 65.78134,-43.24694 0.47124,-122.50519 L 739.66923,429.11879 739.37612,621.52031 395.4006,844.4044 Z"
         id="path3"
         sodipodi:nodetypes="ccccccccccc" /><path
         style="fill:#f5f5f5;fill-opacity:1"
         d="m 818.10164,721.32027 -2.47126,88.22002 -153.35052,112.48701 -100.47781,1.74744 -26.68286,-25.69309 z"
         id="path4"
         sodipodi:nodetypes="cccccc" /><path
         style="fill:#15ca7e;fill-opacity:1"
         d="m 611.6041,184.35054 0.62116,187.22866 c 89.09931,83.70914 180.98374,170.63254 268.55907,259.83944 l 1.92557,-165.47766 -28.58021,-30.83277 -0.50512,-83.87713 -58.53925,-64.65529 1.74744,92.61434 z"
         id="path5"
         sodipodi:nodetypes="ccccccccc" /></g></g></svg>
